<?xml version="1.0" encoding="UTF-8"?>
<svg id="Layer_1" data-name="Layer 1" xmlns="http://www.w3.org/2000/svg" viewBox="0 0 1920 634.58">
  <defs>
    <style>
      .cls-1 {
        fill: #b93e26;
      }
    </style>
  </defs>
  <g>
    <path class="cls-1" d="M435.57,367.02c-3.5-8.74,1.07-16.6,2.59-25.32,4.6-26.34,3.43-71.63-12.89-93.96-4.08-5.59-5.69-6.76-12.25-3.41-19.55,9.99-38.45,42.37-53.23,58.48-6.38,6.95-13.47,2.56-21.57,2.19-5.36-.24-11.79-.21-17.15.04-7.24.34-14.78,4.55-20.47-1.89-14.26-16.11-24.32-32.83-40.72-48.27-2.1-1.98-4.07-4.49-6.6-6.43-11.72-9-15.33-7.52-22.09,5.44-16.43,31.53-12.75,74.59-5.06,108.09-1.67,6.57-6.08,12.53-8.85,18.74-2.12,4.75-8.36,20.02-7.55,24.44.93,5.1,16.65,5.67,21.02,6.57,33.45,6.86,52.82,12.19,73.53,40.57,8.67,11.88,13.68,28.78,32.78,22.14,9.69-3.37,18-21.77,24.95-30.15,22.93-27.62,48.95-27.07,80.83-34.59,11.85-2.8,7.91-7.64,4.65-17.36-3.14-9.36-8.55-16.86-11.93-25.31ZM263.27,338.09c-4.41,2.64-19.53,11.48-23.51,6.18-3.61-4.81-5.58-31.24-5.48-38.15.12-8.71,1.91-21.92,4.89-30.11.55-1.51,3.47-7.83,4.28-8.73,2.22-2.47,5.95.24,7.92,1.71,7.8,5.79,30.14,37.13,31.91,46.28,1.93,9.95-12.45,18.3-20.01,22.83ZM422.36,338.55c-2.23,8.11-4.6,9.02-12.81,6.09-6.23-2.23-24.52-13.55-29.01-18.28-3.26-3.42-4.71-6.93-3.62-11.66,2.13-9.24,22.35-37.18,29.79-43.9,6.71-6.06,9.43-6.63,13.32,2.29,7.46,17.07,7.23,47.61,2.33,65.46Z"/>
    <path class="cls-1" d="M491.06,250.48h-18.98c-7.95-18.5-20.21-35.59-36.34-50.28-28.99-26.41-67.44-41.56-105.48-41.56s-76.49,15.15-105.48,41.56c-16.13,14.69-28.39,31.79-36.34,50.28h-16.56c-7.31,0-13.23,5.92-13.23,13.23v95.46c0,7.31,5.92,13.23,13.23,13.23h24.51c7.34,0,13.28-5.95,13.28-13.28v-73.09c0-26.1,10.55-51.28,29.78-68.93.13-.12.27-.24.4-.36,24.92-22.7,57.87-35.72,90.41-35.72s65.49,13.02,90.41,35.72c.13.12.27.24.4.36,19.23,17.65,29.78,42.83,29.78,68.93v73.09c0,7.34,5.95,13.28,13.28,13.28h26.93c7.31,0,13.23-5.92,13.23-13.23v-95.46c0-7.31-5.92-13.23-13.23-13.23Z"/>
  </g>
  <g>
    <path class="cls-1" d="M807.16,246.88c-45.3,0-82.02,37.62-82.02,84.03s36.72,84.03,82.02,84.03,82.02-37.62,82.02-84.03-36.72-84.03-82.02-84.03ZM807.16,390.14c-31.94,0-57.82-26.52-57.82-59.24s25.89-59.24,57.82-59.24,57.82,26.52,57.82,59.24-25.89,59.24-57.82,59.24Z"/>
    <path class="cls-1" d="M657.32,250.66h-82.11v24.68h18.15v111.02h-18.15v24.68h18.15v.05h25.51v-.05h18.15v-24.68h-18.15v-30.8h38.39v.02s.04,0,.06,0c28.28,0,51.21-23.49,51.21-52.46s-22.93-52.46-51.21-52.46ZM657.32,330.9v-.02h-38.45v-55.53h38.39s.04,0,.06,0c14.98,0,27.12,12.44,27.12,27.78s-12.14,27.78-27.12,27.78Z"/>
    <path class="cls-1" d="M1761.36,386.36h-19.57l-21.57-34.41c19.06-7.64,32.58-26.6,32.58-48.83,0-28.97-22.93-52.46-51.21-52.46h-82.11v24.68h18.15v111.02h-18.15v24.68h18.15v.05h25.51v-.05h18.15v-24.68h-18.15v-30.8h29.24l34.78,55.5,30.12.03-.03-.05h4.1v-24.68ZM1670.26,330.88h-7.12v-55.53h38.39s.04,0,.06,0c14.97,0,27.11,12.44,27.11,27.78s-12.14,27.78-27.11,27.78v-.02h-31.33Z"/>
    <path class="cls-1" d="M984.75,250.66h-82.47v24.68h18.15v111.02h-17.79v24.68h17.79v.05h25.51v-.05h38.81c43.16-.1,78.28-35.96,78.28-80.19s-35.05-80.19-78.28-80.19ZM984.61,386.36h-38.67v-111.02h38.81c29.9,0,54.14,24.88,54.14,55.51s-24.38,55.51-54.28,55.51Z"/>
    <path class="cls-1" d="M1234.81,250.71h-25.51s-18.15,0-18.15,0v24.68h18.15v68.86c0,24.81-19.71,45.65-44.52,45.88-.18,0-.36,0-.55,0s-.37,0-.55,0c-24.81-.24-44.52-21.07-44.52-45.88v-68.86h18.15v-24.68h-18.15s-25.51,0-25.51,0h0s-18.15,0-18.15,0v24.68h18.15v67.85c0,37.73,29.16,69.88,66.84,71.6,1.24.06,2.48.09,3.73.09s2.5-.03,3.73-.09c37.69-1.73,66.84-33.88,66.84-71.6v-67.85h18.15v-24.68h-18.15Z"/>
    <path class="cls-1" d="M1347.29,390.14c-31.93,0-57.82-26.52-57.82-59.24s25.89-59.24,57.82-59.24c23.34,0,43.4,14.2,52.54,34.6h25.9c-.06-.2-.14-.4-.21-.6v-58.79h-24.68v20.41c-14.37-12.71-33.07-20.41-53.54-20.41-45.3,0-82.02,37.62-82.02,84.03s36.72,84.03,82.02,84.03c36.99,0,68.26-25.09,78.48-59.57h-25.86c-9.09,20.5-29.21,34.78-52.62,34.78Z"/>
    <polygon class="cls-1" points="1520.53 250.66 1453.87 250.66 1453.87 275.34 1472.02 275.34 1472.02 340.44 1472.02 386.36 1453.87 386.36 1453.87 411.05 1472.02 411.05 1472.02 411.09 1497.53 411.09 1497.53 411.05 1562.5 411.05 1587.18 411.05 1587.18 386.36 1587.18 351.66 1562.5 351.66 1562.5 381.35 1562.5 386.36 1520.53 386.36 1497.53 386.36 1497.53 343.16 1537.85 343.16 1537.85 318.47 1506.53 318.47 1497.53 318.47 1497.53 275.34 1562.5 275.34 1562.5 280.35 1562.5 310.05 1587.18 310.05 1587.18 275.34 1587.18 250.66 1562.5 250.66 1520.53 250.66"/>
  </g>
</svg>